<svg xmlns="http://www.w3.org/2000/svg" width="88.136" height="77.463" viewBox="0 0 88.136 77.463"><defs><style>.a{fill:#a71999;}</style></defs><path class="a" d="M80.39,61.985H77.635V38.746A7.755,7.755,0,0,0,69.889,31H7.746A7.755,7.755,0,0,0,0,38.746V80.06a7.755,7.755,0,0,0,7.746,7.746h2.582v12.911a2.582,2.582,0,0,0,4.408,1.826L29.473,87.806H41.486v2.582a7.755,7.755,0,0,0,7.746,7.746H63.655l9.572,9.572a2.582,2.582,0,0,0,4.408-1.826V98.135H80.39a7.755,7.755,0,0,0,7.746-7.746V69.732A7.755,7.755,0,0,0,80.39,61.985ZM28.4,82.642a2.582,2.582,0,0,0-1.826.756L15.493,94.483V85.224a2.582,2.582,0,0,0-2.582-2.582H7.746A2.585,2.585,0,0,1,5.164,80.06V38.746a2.585,2.585,0,0,1,2.582-2.582H69.889a2.585,2.585,0,0,1,2.582,2.582V61.985H49.232a7.755,7.755,0,0,0-7.746,7.746V82.642Zm54.569,7.746a2.585,2.585,0,0,1-2.582,2.582H75.053a2.582,2.582,0,0,0-2.582,2.582v4.095l-5.921-5.92a2.581,2.581,0,0,0-1.826-.756H49.232a2.585,2.585,0,0,1-2.582-2.582V69.732a2.585,2.585,0,0,1,2.582-2.582H80.39a2.585,2.585,0,0,1,2.582,2.582Z" transform="translate(0 -31)"/></svg>