<svg xmlns="http://www.w3.org/2000/svg" width="228.005" height="99.396" viewBox="0 0 228.005 99.396"><defs><style>.a,.b,.e{fill:#fff;}.a,.d{font-size:50px;}.a,.b{font-family:Assistant-ExtraBold, Assistant;font-weight:800;}.b{font-size:29.165px;}.c{baseline-shift:16.664999433269266;}</style></defs><g transform="translate(-914 -1454)"><text class="a" transform="translate(1128.416 1531.768)"><tspan x="-70" y="0">6.5</tspan></text><text class="b" transform="translate(1029 1531.768)"><tspan class="c" x="-114.199" y="0">6</tspan><tspan class="d" y="0">‏שנים</tspan></text><g transform="translate(1046.29 1454)"><g transform="translate(0 0)"><path class="e" d="M19.167,99.4H88.524A13.19,13.19,0,0,0,101.7,86.217V20.542A13.19,13.19,0,0,0,88.524,7.363H83.3V3.681a3.681,3.681,0,0,0-7.363,0V7.363H31.758V3.681a3.681,3.681,0,0,0-7.363,0V7.363H19.167A13.19,13.19,0,0,0,5.988,20.542V86.217A13.19,13.19,0,0,0,19.167,99.4ZM13.351,20.542a5.829,5.829,0,0,1,5.816-5.816h5.227v3.681a3.681,3.681,0,1,0,7.363,0V14.725H75.933v3.681a3.681,3.681,0,0,0,7.363,0V14.725h5.227a5.829,5.829,0,0,1,5.816,5.816v10.75H13.351Zm0,18.112H94.34V86.217a5.829,5.829,0,0,1-5.816,5.816H19.167a5.829,5.829,0,0,1-5.816-5.816Z" transform="translate(-5.988 0)"/></g></g></g></svg>