<svg xmlns="http://www.w3.org/2000/svg" width="189.649" height="82.891" viewBox="0 0 189.649 82.891"><defs><style>.a{opacity:0.5;}.b{fill:#a71999;}</style></defs><g transform="translate(-1038.351 -2339.708)"><g class="a" transform="translate(1195.621 2339.708)"><g transform="translate(0)"><path class="b" d="M66.214,19.427A9.714,9.714,0,1,0,56.5,9.714,9.725,9.725,0,0,0,66.214,19.427Zm0-12.952a3.238,3.238,0,1,1-3.238,3.238A3.242,3.242,0,0,1,66.214,6.476Z" transform="translate(-50.024 0)"/><path class="b" d="M39.165,139H26.214a9.725,9.725,0,0,0-9.714,9.714v27.2h6.476v23.475h6.476V169.436H22.976V148.714a3.242,3.242,0,0,1,3.238-3.238H39.165a3.242,3.242,0,0,1,3.238,3.238v20.723H35.927v29.951H42.4V175.912h6.476v-27.2A9.725,9.725,0,0,0,39.165,139Z" transform="translate(-16.5 -116.497)"/></g></g><g class="a" transform="translate(1156.303 2339.708)"><g transform="translate(0)"><path class="b" d="M66.214,19.427A9.714,9.714,0,1,0,56.5,9.714,9.725,9.725,0,0,0,66.214,19.427Zm0-12.952a3.238,3.238,0,1,1-3.238,3.238A3.242,3.242,0,0,1,66.214,6.476Z" transform="translate(-50.024 0)"/><path class="b" d="M39.165,139H26.214a9.725,9.725,0,0,0-9.714,9.714v27.2h6.476v23.475h6.476V169.436H22.976V148.714a3.242,3.242,0,0,1,3.238-3.238H39.165a3.242,3.242,0,0,1,3.238,3.238v20.723H35.927v29.951H42.4V175.912h6.476v-27.2A9.725,9.725,0,0,0,39.165,139Z" transform="translate(-16.5 -116.497)"/></g></g><g class="a" transform="translate(1116.986 2339.708)"><g transform="translate(0)"><path class="b" d="M66.214,19.427A9.714,9.714,0,1,0,56.5,9.714,9.725,9.725,0,0,0,66.214,19.427Zm0-12.952a3.238,3.238,0,1,1-3.238,3.238A3.242,3.242,0,0,1,66.214,6.476Z" transform="translate(-50.024 0)"/><path class="b" d="M39.165,139H26.214a9.725,9.725,0,0,0-9.714,9.714v27.2h6.476v23.475h6.476V169.436H22.976V148.714a3.242,3.242,0,0,1,3.238-3.238H39.165a3.242,3.242,0,0,1,3.238,3.238v20.723H35.927v29.951H42.4V175.912h6.476v-27.2A9.725,9.725,0,0,0,39.165,139Z" transform="translate(-16.5 -116.497)"/></g></g><g transform="translate(1077.668 2339.708)"><g transform="translate(0)"><path class="b" d="M66.214,19.427A9.714,9.714,0,1,0,56.5,9.714,9.725,9.725,0,0,0,66.214,19.427Zm0-12.952a3.238,3.238,0,1,1-3.238,3.238A3.242,3.242,0,0,1,66.214,6.476Z" transform="translate(-50.024 0)"/><path class="b" d="M39.165,139H26.214a9.725,9.725,0,0,0-9.714,9.714v27.2h6.476v23.475h6.476V169.436H22.976V148.714a3.242,3.242,0,0,1,3.238-3.238H39.165a3.242,3.242,0,0,1,3.238,3.238v20.723H35.927v29.951H42.4V175.912h6.476v-27.2A9.725,9.725,0,0,0,39.165,139Z" transform="translate(-16.5 -116.497)"/></g></g><g transform="translate(1038.351 2339.708)"><g transform="translate(0)"><path class="b" d="M66.214,19.427A9.714,9.714,0,1,0,56.5,9.714,9.725,9.725,0,0,0,66.214,19.427Zm0-12.952a3.238,3.238,0,1,1-3.238,3.238A3.242,3.242,0,0,1,66.214,6.476Z" transform="translate(-50.024 0)"/><path class="b" d="M39.165,139H26.214a9.725,9.725,0,0,0-9.714,9.714v27.2h6.476v23.475h6.476V169.436H22.976V148.714a3.242,3.242,0,0,1,3.238-3.238H39.165a3.242,3.242,0,0,1,3.238,3.238v20.723H35.927v29.951H42.4V175.912h6.476v-27.2A9.725,9.725,0,0,0,39.165,139Z" transform="translate(-16.5 -116.497)"/></g></g></g></svg>